# xmcd CD database file
#
# Track frame offsets:
#	150
#	20194
#	46317
#	59623
#	78302
#	99735
#	107030
#	135172
#	154600
#	180155
#	218497
#
# Disc length: 3263 seconds
#
# Revision: 0
# Processed by: cddbd v1.4PL0 Copyright (c) Steve Scherf et al.
# Submitted via: CDex 1.50
#
DISCID=860cbd0b
DTITLE=Billy Taylor Trio - Urban Griot
DYEAR=2000
DGENRE=Jazz
TTITLE0=Local Color - Can You Dig It?
TTITLE1=Reclamation
TTITLE2=Gracias Chucho
TTITLE3=Etude
TTITLE4=Conversion
TTITLE5=Spoken
TTITLE6=In Loving Memory
TTITLE7=Like A Heartbeat
TTITLE8=Invention - Looking For Another Theme
TTITLE9=Transformation
TTITLE10=A Duke-ish Blues
EXTD=YEAR: 2000
EXTT0=
EXTT1=
EXTT2=
EXTT3=
EXTT4=
EXTT5=
EXTT6=
EXTT7=
EXTT8=
EXTT9=
EXTT10=
PLAYORDER=
